<svg width="120" height="120" viewBox="0 0 120 120" fill="none" xmlns="http://www.w3.org/2000/svg">
<rect width="120" height="120" rx="13.7705" fill="#FC81BC"/>
<rect x="53.1152" y="80.6553" width="13.7705" height="6.88525" fill="#2A2A2A"/>
<rect x="56.0659" y="87.541" width="7.86885" height="4.91803" fill="#2A2A2A"/>
<rect x="43.2788" y="51.1475" width="7.86885" height="7.86885" fill="#2A2A2A"/>
<rect x="41.3115" y="94.4258" width="7.86885" height="7.86885" fill="#2A2A2A"/>
<rect x="70.8198" y="94.4258" width="7.86885" height="7.86885" fill="#2A2A2A"/>
<rect x="45.2461" y="13.7705" width="29.5082" height="7.86885" fill="#2A2A2A"/>
<rect x="37.377" y="21.6396" width="7.86885" height="7.86885" fill="#2A2A2A"/>
<rect x="23.6064" y="66.8848" width="7.86885" height="7.86885" fill="#2A2A2A"/>
<rect x="15.7378" y="74.7542" width="7.86885" height="7.86885" fill="#2A2A2A"/>
<rect width="7.86885" height="7.86885" transform="matrix(-1 0 0 1 104.263 74.7542)" fill="#2A2A2A"/>
<rect x="37.3774" y="78.6885" width="7.86885" height="16.7213" fill="#2A2A2A"/>
<rect x="49.1807" y="98.3604" width="21.6393" height="7.86885" fill="#2A2A2A"/>
<rect x="23.6064" y="29.5078" width="13.7705" height="7.86885" fill="#2A2A2A"/>
<rect x="15.7383" y="66.8848" width="29.5082" height="7.86885" transform="rotate(-90 15.7383 66.8848)" fill="#2A2A2A"/>
<rect x="31.4756" y="78.6885" width="29.5082" height="7.86885" transform="rotate(-90 31.4756 78.6885)" fill="#2A2A2A"/>
<rect width="7.86885" height="7.86885" transform="matrix(-1 0 0 1 82.623 21.6396)" fill="#2A2A2A"/>
<rect width="7.86885" height="7.86885" transform="matrix(-1 0 0 1 96.3936 66.8848)" fill="#2A2A2A"/>
<rect width="7.86885" height="16.7213" transform="matrix(-1 0 0 1 82.623 78.6885)" fill="#2A2A2A"/>
<rect width="13.7705" height="7.86885" transform="matrix(-1 0 0 1 96.3936 29.5078)" fill="#2A2A2A"/>
<rect width="29.5082" height="7.86885" transform="matrix(4.37114e-08 -1 -1 -4.37114e-08 104.263 66.8848)" fill="#2A2A2A"/>
<rect width="29.5082" height="7.86885" transform="matrix(4.37114e-08 -1 -1 -4.37114e-08 88.5249 78.6885)" fill="#2A2A2A"/>
<rect x="68.8525" y="51.1475" width="7.86885" height="7.86885" fill="#2A2A2A"/>
</svg>
