<svg width="48" height="48" viewBox="0 0 48 48" fill="none" xmlns="http://www.w3.org/2000/svg">
<rect width="48" height="48" rx="8" fill="#FC81BC"/>
<rect x="21.2456" y="32.262" width="5.5082" height="2.7541" fill="#2A2A2A"/>
<rect x="22.4258" y="35.0156" width="3.14754" height="1.96721" fill="#2A2A2A"/>
<rect x="17.3115" y="20.459" width="3.14754" height="3.14754" fill="#2A2A2A"/>
<rect x="16.5244" y="37.7705" width="3.14754" height="3.14754" fill="#2A2A2A"/>
<rect x="28.3276" y="37.7705" width="3.14754" height="3.14754" fill="#2A2A2A"/>
<rect x="18.0981" y="5.50781" width="11.8033" height="3.14754" fill="#2A2A2A"/>
<rect x="14.9507" y="8.6554" width="3.14754" height="3.14754" fill="#2A2A2A"/>
<rect x="9.44238" y="26.7538" width="3.14754" height="3.14754" fill="#2A2A2A"/>
<rect x="6.29492" y="29.9014" width="3.14754" height="3.14754" fill="#2A2A2A"/>
<rect width="3.14754" height="3.14754" transform="matrix(-1 0 0 1 41.7046 29.9014)" fill="#2A2A2A"/>
<rect x="14.9507" y="31.4746" width="3.14754" height="6.68852" fill="#2A2A2A"/>
<rect x="19.6719" y="39.3438" width="8.65574" height="3.14754" fill="#2A2A2A"/>
<rect x="9.44238" y="11.8029" width="5.5082" height="3.14754" fill="#2A2A2A"/>
<rect x="6.29492" y="26.7538" width="11.8033" height="3.14754" transform="rotate(-90 6.29492 26.7538)" fill="#2A2A2A"/>
<rect x="12.5898" y="31.4746" width="11.8033" height="3.14754" transform="rotate(-90 12.5898 31.4746)" fill="#2A2A2A"/>
<rect width="3.14754" height="3.14754" transform="matrix(-1 0 0 1 33.0488 8.6554)" fill="#2A2A2A"/>
<rect width="3.14754" height="3.14754" transform="matrix(-1 0 0 1 38.5571 26.7538)" fill="#2A2A2A"/>
<rect width="3.14754" height="6.68852" transform="matrix(-1 0 0 1 33.0488 31.4746)" fill="#2A2A2A"/>
<rect width="5.5082" height="3.14754" transform="matrix(-1 0 0 1 38.5571 11.8029)" fill="#2A2A2A"/>
<rect width="11.8033" height="3.14754" transform="matrix(4.37114e-08 -1 -1 -4.37114e-08 41.7046 26.7538)" fill="#2A2A2A"/>
<rect width="11.8033" height="3.14754" transform="matrix(4.37114e-08 -1 -1 -4.37114e-08 35.4097 31.4746)" fill="#2A2A2A"/>
<rect x="27.541" y="20.459" width="3.14754" height="3.14754" fill="#2A2A2A"/>
</svg>
