<svg width="49" height="48" viewBox="0 0 49 48" fill="none" xmlns="http://www.w3.org/2000/svg">
<rect x="0.82959" width="48" height="48" rx="8" fill="#FC81BC"/>
<rect x="22.0757" y="32.262" width="5.5082" height="2.7541" fill="#5673F6"/>
<rect x="23.2559" y="35.0156" width="3.14754" height="1.96721" fill="#5673F6"/>
<rect x="18.1416" y="20.459" width="3.14754" height="3.14754" fill="#5673F6"/>
<rect x="17.3545" y="37.7705" width="3.14754" height="3.14754" fill="#5673F6"/>
<rect x="29.1577" y="37.7705" width="3.14754" height="3.14754" fill="#5673F6"/>
<rect x="18.9282" y="5.50781" width="11.8033" height="3.14754" fill="#5673F6"/>
<rect x="15.7808" y="8.6554" width="3.14754" height="3.14754" fill="#5673F6"/>
<rect x="10.2725" y="26.7538" width="3.14754" height="3.14754" fill="#5673F6"/>
<rect x="7.125" y="29.9014" width="3.14754" height="3.14754" fill="#5673F6"/>
<rect width="3.14754" height="3.14754" transform="matrix(-1 0 0 1 42.5347 29.9014)" fill="#5673F6"/>
<rect x="15.7808" y="31.4746" width="3.14754" height="6.68852" fill="#5673F6"/>
<rect x="20.502" y="39.3438" width="8.65574" height="3.14754" fill="#5673F6"/>
<rect x="10.2725" y="11.8029" width="5.5082" height="3.14754" fill="#5673F6"/>
<rect x="7.125" y="26.7538" width="11.8033" height="3.14754" transform="rotate(-90 7.125 26.7538)" fill="#5673F6"/>
<rect x="13.4199" y="31.4746" width="11.8033" height="3.14754" transform="rotate(-90 13.4199 31.4746)" fill="#5673F6"/>
<rect width="3.14754" height="3.14754" transform="matrix(-1 0 0 1 33.8789 8.6554)" fill="#5673F6"/>
<rect width="3.14754" height="3.14754" transform="matrix(-1 0 0 1 39.3872 26.7538)" fill="#5673F6"/>
<rect width="3.14754" height="6.68852" transform="matrix(-1 0 0 1 33.8789 31.4746)" fill="#5673F6"/>
<rect width="5.5082" height="3.14754" transform="matrix(-1 0 0 1 39.3872 11.8029)" fill="#5673F6"/>
<rect width="11.8033" height="3.14754" transform="matrix(4.37114e-08 -1 -1 -4.37114e-08 42.5347 26.7538)" fill="#5673F6"/>
<rect width="11.8033" height="3.14754" transform="matrix(4.37114e-08 -1 -1 -4.37114e-08 36.2397 31.4746)" fill="#5673F6"/>
<rect x="28.3711" y="20.459" width="3.14754" height="3.14754" fill="#5673F6"/>
</svg>
