<svg width="49" height="48" viewBox="0 0 49 48" fill="none" xmlns="http://www.w3.org/2000/svg">
<rect x="0.82959" width="48" height="48" rx="8" fill="#5673F6"/>
<rect x="22.0752" y="32.2623" width="5.5082" height="2.7541" fill="white"/>
<rect x="23.2559" y="35.0164" width="3.14754" height="1.96721" fill="white"/>
<rect x="18.1411" y="20.459" width="3.14754" height="3.14754" fill="white"/>
<rect x="17.354" y="37.7705" width="3.14754" height="3.14754" fill="white"/>
<rect x="29.1572" y="37.7705" width="3.14754" height="3.14754" fill="white"/>
<rect x="18.9277" y="5.50818" width="11.8033" height="3.14754" fill="white"/>
<rect x="15.7803" y="8.65576" width="3.14754" height="3.14754" fill="white"/>
<rect x="10.272" y="26.7542" width="3.14754" height="3.14754" fill="white"/>
<rect x="7.12451" y="29.9016" width="3.14754" height="3.14754" fill="white"/>
<rect width="3.14754" height="3.14754" transform="matrix(-1 0 0 1 42.5342 29.9016)" fill="white"/>
<rect x="15.7803" y="31.4753" width="3.14754" height="6.68852" fill="white"/>
<rect x="20.5015" y="39.3442" width="8.65574" height="3.14754" fill="white"/>
<rect x="10.272" y="11.8032" width="5.5082" height="3.14754" fill="white"/>
<rect x="7.12451" y="26.7542" width="11.8033" height="3.14754" transform="rotate(-90 7.12451 26.7542)" fill="white"/>
<rect x="13.4194" y="31.4753" width="11.8033" height="3.14754" transform="rotate(-90 13.4194 31.4753)" fill="white"/>
<rect width="3.14754" height="3.14754" transform="matrix(-1 0 0 1 33.8784 8.65576)" fill="white"/>
<rect width="3.14754" height="3.14754" transform="matrix(-1 0 0 1 39.3867 26.7542)" fill="white"/>
<rect width="3.14754" height="6.68852" transform="matrix(-1 0 0 1 33.8784 31.4753)" fill="white"/>
<rect width="5.5082" height="3.14754" transform="matrix(-1 0 0 1 39.3867 11.8032)" fill="white"/>
<rect width="11.8033" height="3.14754" transform="matrix(4.37114e-08 -1 -1 -4.37114e-08 42.5342 26.7542)" fill="white"/>
<rect width="11.8033" height="3.14754" transform="matrix(4.37114e-08 -1 -1 -4.37114e-08 36.2393 31.4753)" fill="white"/>
<rect x="28.3706" y="20.459" width="3.14754" height="3.14754" fill="white"/>
</svg>
