<svg width="120" height="120" viewBox="0 0 120 120" fill="none" xmlns="http://www.w3.org/2000/svg">
<rect width="120" height="120" rx="13.7705" fill="#FFEA5A"/>
<rect x="43.2788" y="45.2458" width="7.86885" height="3.93443" fill="#2A2A2A"/>
<rect x="43.2788" y="82.6229" width="7.86885" height="7.86885" fill="#2A2A2A"/>
<rect x="32.459" y="102.295" width="7.86885" height="7.86885" fill="#2A2A2A"/>
<rect x="44.2622" y="102.295" width="7.86885" height="7.86885" fill="#2A2A2A"/>
<rect x="56.0659" y="102.295" width="7.86885" height="7.86885" fill="#2A2A2A"/>
<rect x="67.8691" y="102.295" width="7.86885" height="7.86885" fill="#2A2A2A"/>
<rect x="79.6724" y="102.295" width="7.86885" height="7.86885" fill="#2A2A2A"/>
<rect x="68.8525" y="82.6229" width="7.86885" height="7.86885" fill="#2A2A2A"/>
<rect x="49.1807" y="90.4918" width="21.6393" height="7.86885" fill="#2A2A2A"/>
<rect x="45.2461" y="13.7705" width="29.5082" height="7.86885" fill="#2A2A2A"/>
<rect x="37.3774" y="21.6393" width="7.86885" height="7.86885" fill="#2A2A2A"/>
<rect x="23.6069" y="66.8853" width="7.86885" height="7.86885" fill="#2A2A2A"/>
<rect x="15.7378" y="74.7542" width="7.86885" height="7.86885" fill="#2A2A2A"/>
<rect width="7.86885" height="7.86885" transform="matrix(-1 0 0 1 104.263 74.7542)" fill="#2A2A2A"/>
<rect x="37.3774" y="74.7542" width="7.86885" height="7.86885" fill="#2A2A2A"/>
<rect x="23.6069" y="29.5082" width="13.7705" height="7.86885" fill="#2A2A2A"/>
<rect x="15.7378" y="66.8853" width="29.5082" height="7.86885" transform="rotate(-90 15.7378 66.8853)" fill="#2A2A2A"/>
<rect x="31.4756" y="74.7542" width="25.5738" height="7.86885" transform="rotate(-90 31.4756 74.7542)" fill="#2A2A2A"/>
<rect width="7.86885" height="7.86885" transform="matrix(-1 0 0 1 82.623 21.6393)" fill="#2A2A2A"/>
<rect width="7.86885" height="7.86885" transform="matrix(-1 0 0 1 96.3936 66.8853)" fill="#2A2A2A"/>
<rect width="7.86885" height="7.86885" transform="matrix(-1 0 0 1 82.623 74.7542)" fill="#2A2A2A"/>
<rect width="13.7705" height="7.86885" transform="matrix(-1 0 0 1 96.3936 29.5082)" fill="#2A2A2A"/>
<rect width="29.5082" height="7.86885" transform="matrix(4.37114e-08 -1 -1 -4.37114e-08 104.263 66.8853)" fill="#2A2A2A"/>
<rect width="25.5738" height="7.86885" transform="matrix(4.37114e-08 -1 -1 -4.37114e-08 88.5249 74.7542)" fill="#2A2A2A"/>
<rect x="68.8525" y="45.2458" width="7.86885" height="3.93443" fill="#2A2A2A"/>
<rect x="53.1147" y="64.918" width="13.7705" height="6.88525" fill="#2A2A2A"/>
<rect x="56.0659" y="71.8032" width="7.86885" height="4.91803" fill="#2A2A2A"/>
</svg>
